{
	"asset":{
		"generator":"Khronos glTF Blender I/O v3.6.28",
		"version":"2.0"
	},
	"extensionsUsed":[
		"KHR_materials_emissive_strength"
	],
	"scene":0,
	"scenes":[
		{
			"name":"Scene",
			"nodes":[
				4
			]
		}
	],
	"nodes":[
		{
			"mesh":0,
			"name":"Cylinder.002",
			"translation":[
				-0.001576349139213562,
				0.27077001333236694,
				0.0018413958605378866
			]
		},
		{
			"children":[
				0
			],
			"mesh":1,
			"name":"Cylinder",
			"rotation":[
				0.5,
				0.5,
				-0.5,
				0.5000000596046448
			],
			"translation":[
				0.6145790815353394,
				0.054736554622650146,
				0.14563977718353271
			]
		},
		{
			"mesh":0,
			"name":"Cylinder.003",
			"translation":[
				0.007489785552024841,
				0.2727978229522705,
				0.0051064081490039825
			]
		},
		{
			"children":[
				2
			],
			"mesh":1,
			"name":"Cylinder.001",
			"rotation":[
				0.5,
				0.5,
				-0.5,
				0.5000000596046448
			],
			"translation":[
				0.6125512719154358,
				0.0580015666782856,
				-0.1351948082447052
			]
		},
		{
			"children":[
				1,
				3
			],
			"mesh":2,
			"name":"Plane",
			"rotation":[
				0,
				-0.7071068286895752,
				0,
				0.7071068286895752
			]
		}
	],
	"materials":[
		{
			"doubleSided":true,
			"emissiveFactor":[
				1,
				0.0790262899264126,
				0
			],
			"extensions":{
				"KHR_materials_emissive_strength":{
					"emissiveStrength":1.9101698398590088
				}
			},
			"name":"flame",
			"pbrMetallicRoughness":{
				"baseColorFactor":[
					0,
					0,
					0,
					1
				],
				"metallicFactor":0,
				"roughnessFactor":0.5
			}
		},
		{
			"doubleSided":true,
			"name":"Material",
			"pbrMetallicRoughness":{
				"baseColorFactor":[
					0.800000011920929,
					0.800000011920929,
					0.800000011920929,
					1
				],
				"metallicFactor":0,
				"roughnessFactor":0.5
			}
		},
		{
			"doubleSided":true,
			"name":"Material",
			"pbrMetallicRoughness":{
				"baseColorFactor":[
					0.800000011920929,
					0.800000011920929,
					0.800000011920929,
					1
				],
				"metallicFactor":0,
				"roughnessFactor":0.5
			}
		}
	],
	"meshes":[
		{
			"name":"Cylinder.001",
			"primitives":[
				{
					"attributes":{
						"POSITION":0,
						"NORMAL":1,
						"TEXCOORD_0":2,
						"TANGENT":3
					},
					"indices":4,
					"material":0
				}
			]
		},
		{
			"name":"Cylinder",
			"primitives":[
				{
					"attributes":{
						"POSITION":5,
						"NORMAL":6,
						"TEXCOORD_0":7
					},
					"indices":8,
					"material":1
				}
			]
		},
		{
			"name":"Plane",
			"primitives":[
				{
					"attributes":{
						"POSITION":9,
						"NORMAL":10,
						"TEXCOORD_0":11
					},
					"indices":12,
					"material":2
				}
			]
		}
	],
	"accessors":[
		{
			"bufferView":0,
			"componentType":5126,
			"count":388,
			"max":[
				0.07743948698043823,
				0.1560354083776474,
				0.07743945717811584
			],
			"min":[
				-0.07743944227695465,
				0.0011564940214157104,
				-0.07743945717811584
			],
			"type":"VEC3"
		},
		{
			"bufferView":1,
			"componentType":5126,
			"count":388,
			"type":"VEC3"
		},
		{
			"bufferView":2,
			"componentType":5126,
			"count":388,
			"type":"VEC2"
		},
		{
			"bufferView":3,
			"componentType":5126,
			"count":388,
			"type":"VEC4"
		},
		{
			"bufferView":4,
			"componentType":5123,
			"count":768,
			"type":"SCALAR"
		},
		{
			"bufferView":5,
			"componentType":5126,
			"count":1021,
			"max":[
				0.1329054832458496,
				0.3729170560836792,
				0.13290542364120483
			],
			"min":[
				-0.13290539383888245,
				-0.08241008222103119,
				-0.1329054832458496
			],
			"type":"VEC3"
		},
		{
			"bufferView":6,
			"componentType":5126,
			"count":1021,
			"type":"VEC3"
		},
		{
			"bufferView":7,
			"componentType":5126,
			"count":1021,
			"type":"VEC2"
		},
		{
			"bufferView":8,
			"componentType":5123,
			"count":3060,
			"type":"SCALAR"
		},
		{
			"bufferView":9,
			"componentType":5126,
			"count":742,
			"max":[
				0.9422056674957275,
				0.3333361744880676,
				2.0004234313964844
			],
			"min":[
				-1,
				-0.14366047084331512,
				-2.0004234313964844
			],
			"type":"VEC3"
		},
		{
			"bufferView":10,
			"componentType":5126,
			"count":742,
			"type":"VEC3"
		},
		{
			"bufferView":11,
			"componentType":5126,
			"count":742,
			"type":"VEC2"
		},
		{
			"bufferView":12,
			"componentType":5123,
			"count":2112,
			"type":"SCALAR"
		}
	],
	"bufferViews":[
		{
			"buffer":0,
			"byteLength":4656,
			"byteOffset":0,
			"target":34962
		},
		{
			"buffer":0,
			"byteLength":4656,
			"byteOffset":4656,
			"target":34962
		},
		{
			"buffer":0,
			"byteLength":3104,
			"byteOffset":9312,
			"target":34962
		},
		{
			"buffer":0,
			"byteLength":6208,
			"byteOffset":12416,
			"target":34962
		},
		{
			"buffer":0,
			"byteLength":1536,
			"byteOffset":18624,
			"target":34963
		},
		{
			"buffer":0,
			"byteLength":12252,
			"byteOffset":20160,
			"target":34962
		},
		{
			"buffer":0,
			"byteLength":12252,
			"byteOffset":32412,
			"target":34962
		},
		{
			"buffer":0,
			"byteLength":8168,
			"byteOffset":44664,
			"target":34962
		},
		{
			"buffer":0,
			"byteLength":6120,
			"byteOffset":52832,
			"target":34963
		},
		{
			"buffer":0,
			"byteLength":8904,
			"byteOffset":58952,
			"target":34962
		},
		{
			"buffer":0,
			"byteLength":8904,
			"byteOffset":67856,
			"target":34962
		},
		{
			"buffer":0,
			"byteLength":5936,
			"byteOffset":76760,
			"target":34962
		},
		{
			"buffer":0,
			"byteLength":4224,
			"byteOffset":82696,
			"target":34963
		}
	],
	"buffers":[
		{
			"byteLength":86920,
			"uri":"data:application/octet-stream;base64,"
		}
	]
}
